<?xml version="1.0" encoding="UTF-8" standalone="no"?>
<!-- Created with Inkscape (http://www.inkscape.org/) -->

<svg
   width="210mm"
   height="297mm"
   viewBox="0 0 210 297"
   version="1.1"
   id="svg1"
   inkscape:version="1.4.3 (0d15f75042, 2025-12-25)"
   sodipodi:docname="example3.svg"
   xmlns:inkscape="http://www.inkscape.org/namespaces/inkscape"
   xmlns:sodipodi="http://sodipodi.sourceforge.net/DTD/sodipodi-0.dtd"
   xmlns="http://www.w3.org/2000/svg"
   xmlns:svg="http://www.w3.org/2000/svg">
  <sodipodi:namedview
     id="namedview1"
     pagecolor="#ffffff"
     bordercolor="#666666"
     borderopacity="1.0"
     inkscape:showpageshadow="2"
     inkscape:pageopacity="0.0"
     inkscape:pagecheckerboard="0"
     inkscape:deskcolor="#d1d1d1"
     inkscape:document-units="mm"
     inkscape:zoom="0.71268238"
     inkscape:cx="305.88661"
     inkscape:cy="346.57795"
     inkscape:window-width="1920"
     inkscape:window-height="1052"
     inkscape:window-x="0"
     inkscape:window-y="0"
     inkscape:window-maximized="1"
     inkscape:current-layer="layer1" />
  <defs
     id="defs1" />
  <g
     inkscape:label="Layer 1"
     inkscape:groupmode="layer"
     id="layer1">
    <path
       style="fill:none;stroke:#000000;stroke-width:0.264583px;stroke-linecap:butt;stroke-linejoin:miter;stroke-opacity:1"
       d="m 84.529312,121.5437 c -8.314245,2.15337 -18.045883,8.3697 -17.259295,18.11798 2.257242,14.19626 16.085762,23.38261 29.244582,26.31452 10.447841,2.15337 21.993731,-2.26508 27.478781,-11.61499 6.7695,-9.43348 6.89463,-22.29383 1.81345,-32.50703 -3.90177,-9.28919 -11.27974,-17.99391 -10.41966,-28.606296 2.24145,-7.134041 -3.47836,4.746852 -4.60933,6.673132 -3.63217,6.781494 -5.00776,14.683124 -3.22476,22.214234 0.79457,6.69962 4.14728,17.02044 -3.78696,20.63375 -9.514033,4.54976 -21.772098,-3.78726 -21.187049,-14.29505 0.04972,-2.42497 0.715403,-4.84002 1.950241,-6.93025 z"
       id="path1" />
    <path
       style="fill:none;stroke:#000000;stroke-width:0.264583px;stroke-linecap:butt;stroke-linejoin:miter;stroke-opacity:1"
       d="m 110.80089,100.73986 c -1.29475,-0.52968 -1.6461,-0.72716 -2.94366,-1.227235 C 99.258326,94.068157 87.208399,95.755941 80.080405,87.799668 76.094779,82.482252 74.735578,72.908271 77.414957,67.857642 72.896761,74.816004 67.133011,81.475392 66.392411,90.13401 c -1.778559,12.75953 2.043502,25.80074 8.16139,36.92247"
       id="path2"
       sodipodi:nodetypes="cccccc" />
    <path
       style="fill:none;stroke:#000000;stroke-width:0.264583px;stroke-linecap:butt;stroke-linejoin:miter;stroke-opacity:1"
       d="M 84.004284,91.617172 C 84.47596,73.713084 101.38224,59.420536 118.55127,58.076686 c 8.87687,-0.444459 17.35434,5.40674 20.08668,13.864702 3.43382,9.044003 -1.6587,18.059254 -3.30523,26.827623 -1.29073,7.422669 3.45381,14.171499 9.77961,17.539879 5.79664,3.60311 14.23273,5.26791 19.74608,0.24705 -11.0568,8.82117 -24.40664,14.0387 -37.53942,18.90097"
       id="path3" />
    <path
       style="fill:none;stroke:#000000;stroke-width:0.264583px;stroke-linecap:butt;stroke-linejoin:miter;stroke-opacity:1"
       d="M 67.990968,83.479258 C 58.41344,75.436346 57.11078,59.791913 65.404559,50.352374 73.926867,39.13062 90.320784,31.395651 103.21779,37.592825 c 7.19135,3.455535 14.76256,7.034798 21.45538,1.796526 4.94353,-0.912285 -3.28828,6.631032 1.28517,10.336174 7.22556,5.853733 16.80096,3.371893 23.96992,8.694534 8.29845,4.421128 13.1331,16.378124 6.86804,24.333531 -4.90293,6.37018 -13.70208,7.464177 -21.07688,5.713421"
       id="path4"
       sodipodi:nodetypes="ccscsccc" />
    <path
       style="fill:none;stroke:#000000;stroke-width:0.264583px;stroke-linecap:butt;stroke-linejoin:miter;stroke-opacity:1"
       d="m 142.01974,126.53145 c 8.62466,12.82819 8.78286,32.77313 -4.15285,42.88952 -9.61281,7.5879 -24.92794,5.26349 -32.1183,16.36482 -3.9404,6.20559 14.83497,6.57812 5.76086,10.12119 -8.40535,3.11642 -18.900582,-0.14434 -22.910273,-8.47606 -4.54165,-7.90644 -4.906354,-18.24525 -0.394678,-26.2477"
       id="path5" />
    <path
       id="path6"
       style="fill:none;stroke:#000000;stroke-width:0.1016;stroke-linecap:round"
       d="M 201.58874,127.15312 A 88.914368,115.27312 0 0 1 112.67437,242.42624 88.914368,115.27312 0 0 1 23.760002,127.15312 88.914368,115.27312 0 0 1 112.67437,11.880005 88.914368,115.27312 0 0 1 201.58874,127.15312 Z" />
    <path
       style="fill:none;stroke:#000000;stroke-width:0.264583px;stroke-linecap:butt;stroke-linejoin:miter;stroke-opacity:1"
       d="M 70.16625,49.005 49.005,34.897499"
       id="path7" />
    <path
       style="fill:none;stroke:#000000;stroke-width:0.264583px;stroke-linecap:butt;stroke-linejoin:miter;stroke-opacity:1"
       d="M 92.069998,187.48125 58.6575,220.89375"
       id="path8" />
    <path
       style="fill:none;stroke:#000000;stroke-width:0.264583px;stroke-linecap:butt;stroke-linejoin:miter;stroke-opacity:1"
       d="m 156.29625,74.621249 40.8375,-6.682499"
       id="path9" />
  </g>
</svg>
