<?xml version="1.0" encoding="UTF-8" standalone="no"?>
<!-- Created with Inkscape (http://www.inkscape.org/) -->

<svg
   width="210mm"
   height="297mm"
   viewBox="0 0 210 297"
   version="1.1"
   id="svg1"
   inkscape:version="1.4.3 (0d15f75042, 2025-12-25)"
   sodipodi:docname="example2.svg"
   xmlns:inkscape="http://www.inkscape.org/namespaces/inkscape"
   xmlns:sodipodi="http://sodipodi.sourceforge.net/DTD/sodipodi-0.dtd"
   xmlns="http://www.w3.org/2000/svg"
   xmlns:svg="http://www.w3.org/2000/svg">
  <sodipodi:namedview
     id="namedview1"
     pagecolor="#ffffff"
     bordercolor="#666666"
     borderopacity="1.0"
     inkscape:showpageshadow="2"
     inkscape:pageopacity="0.0"
     inkscape:pagecheckerboard="0"
     inkscape:deskcolor="#d1d1d1"
     inkscape:document-units="mm"
     inkscape:zoom="0.71268238"
     inkscape:cx="742.26614"
     inkscape:cy="474.26457"
     inkscape:window-width="1920"
     inkscape:window-height="1052"
     inkscape:window-x="0"
     inkscape:window-y="0"
     inkscape:window-maximized="1"
     inkscape:current-layer="layer1" />
  <defs
     id="defs1" />
  <g
     inkscape:label="Layer 1"
     inkscape:groupmode="layer"
     id="layer1">
    <path
       style="fill:none;stroke:#000000;stroke-width:0.264583px;stroke-linecap:butt;stroke-linejoin:miter;stroke-opacity:1"
       d="M -15.5925,139.59 C 35.407338,145.68539 10.36154,78.430811 85.387499,94.297499 115.31694,100.62706 141.13283,41.994929 183.81516,79.053047 196.44117,90.015335 212.13351,86.412525 228.69,78.705"
       id="path1"
       sodipodi:nodetypes="cssc" />
    <path
       style="fill:none;stroke:#000000;stroke-width:0.264583px;stroke-linecap:butt;stroke-linejoin:miter;stroke-opacity:1"
       d="m -7.19305,178.17398 c 50.999838,6.09539 25.95404,-61.15919 100.979999,-45.2925 29.929441,6.32956 55.745331,-52.302574 98.427661,-15.24446 12.62601,10.96229 28.31835,7.35948 44.87484,-0.34804"
       id="path1-3"
       sodipodi:nodetypes="cssc" />
    <path
       style="fill:none;stroke:#000000;stroke-width:0.264583px;stroke-linecap:butt;stroke-linejoin:miter;stroke-opacity:1"
       d="m 20.79,51.232501 2.97,57.914999 33.412499,94.2975 59.400001,35.64"
       id="path2" />
    <path
       style="fill:none;stroke:#000000;stroke-width:0.264583px;stroke-linecap:butt;stroke-linejoin:miter;stroke-opacity:1"
       d="M 125.42043,232.46173 113.1267,175.78871 64.90915,88.13324 0.528784,62.564929"
       id="path2-1" />
    <path
       style="fill:none;stroke:#000000;stroke-width:0.264583px;stroke-linecap:butt;stroke-linejoin:miter;stroke-opacity:1"
       d="M 54.944999,257.6475 C 73.219241,231.33039 91.095239,214.51389 127.71,193.05 c 36.82526,-21.58728 44.1688,-72.0852 56.10516,-113.996953 4.56755,-16.037894 5.87951,-31.948355 4.03734,-47.125546"
       id="path3"
       sodipodi:nodetypes="cssc" />
    <path
       style="fill:none;stroke:#000000;stroke-width:0.264583px;stroke-linecap:butt;stroke-linejoin:miter;stroke-opacity:1"
       d="m 43.40991,248.31552 c 18.27425,-26.31711 36.15024,-43.13361 72.765,-64.5975 36.82526,-21.58728 44.1688,-72.0852 56.10516,-113.99695 4.56755,-16.037894 5.87951,-31.948355 4.03734,-47.125546"
       id="path3-3"
       sodipodi:nodetypes="cssc" />
    <path
       style="fill:none;stroke:#000000;stroke-width:0.264583px;stroke-linecap:butt;stroke-linejoin:miter;stroke-opacity:1"
       d="m 178.9425,148.5 c -2.86445,-8.14785 -11.07845,-12.04453 -19.305,-12.99375 -24.8672,-2.86929 -42.37894,20.90805 -12.99375,31.9275 17.00698,6.37761 45.18732,-8.19328 32.29875,-18.93375 z"
       id="path4" />
  </g>
</svg>
